<?xml version="1.0" encoding="UTF-8" standalone="no"?>
<!-- Created with Inkscape (http://www.inkscape.org/) -->

<svg
   xmlns:dc="http://purl.org/dc/elements/1.1/"
   xmlns:cc="http://creativecommons.org/ns#"
   xmlns:rdf="http://www.w3.org/1999/02/22-rdf-syntax-ns#"
   xmlns:svg="http://www.w3.org/2000/svg"
   xmlns="http://www.w3.org/2000/svg"
   xmlns:sodipodi="http://sodipodi.sourceforge.net/DTD/sodipodi-0.dtd"
   xmlns:inkscape="http://www.inkscape.org/namespaces/inkscape"
   width="165mm"
   height="165mm"
   viewBox="0 0 165 165"
   version="1.1"
   id="svg933"
   inkscape:version="0.92.4 (unknown)"
   sodipodi:docname="web-logo.svg"
   inkscape:export-filename="/home/koolamusic/andrew.png"
   inkscape:export-xdpi="100"
   inkscape:export-ydpi="100">
  <defs
     id="defs927">
    <inkscape:path-effect
       effect="spiro"
       id="path-effect16"
       is_visible="true" />
  </defs>
  <sodipodi:namedview
     id="base"
     pagecolor="#ffffff"
     bordercolor="#666666"
     borderopacity="1.0"
     inkscape:pageopacity="0.0"
     inkscape:pageshadow="2"
     inkscape:zoom="0.35"
     inkscape:cx="163.30668"
     inkscape:cy="76.139576"
     inkscape:document-units="mm"
     inkscape:current-layer="layer1"
     showgrid="false"
     inkscape:window-width="1366"
     inkscape:window-height="713"
     inkscape:window-x="0"
     inkscape:window-y="25"
     inkscape:window-maximized="1" />
  <metadata
     id="metadata930">
    <rdf:RDF>
      <cc:Work
         rdf:about="">
        <dc:format>image/svg+xml</dc:format>
        <dc:type
           rdf:resource="http://purl.org/dc/dcmitype/StillImage" />
        <dc:title></dc:title>
      </cc:Work>
    </rdf:RDF>
  </metadata>
  <g
     inkscape:label="Layer 1"
     inkscape:groupmode="layer"
     id="layer1"
     transform="translate(179.27965,-3.978591)">
    <g
       aria-label="a"
       style="font-style:normal;font-variant:normal;font-weight:normal;font-stretch:normal;font-size:19.84097862px;line-height:1.25;font-family:'Copyright Sharp Type Co.';-inkscape-font-specification:'Copyright Sharp Type Co.';letter-spacing:0px;word-spacing:0px;fill:#233044;fill-opacity:1;stroke:#233044;stroke-width:2.21648312;stroke-miterlimit:4;stroke-dasharray:none;stroke-opacity:1"
       id="text12">
      <path
         d="m -106.62271,112.34054 q -10.05276,0 -14.2855,-2.77774 -4.10047,-2.91001 -4.10047,-7.67185 v -0.13227 q 0,-2.777736 1.32273,-5.02638 1.32273,-2.248644 3.9682,-3.835923 3.4391,-2.248644 10.18503,-3.439103 6.87821,-1.322732 19.840981,-1.984097 11.507768,-0.661366 16.930969,-2.116372 5.555474,-1.587278 7.407299,-4.100469 v 3.174557 q 0,4.894108 -2.910011,9.92049 -2.91001,4.894108 -8.333211,8.994577 -5.423201,4.10047 -13.095046,6.61366 -7.539572,2.38092 -16.930971,2.38092 z m 43.253337,9.39139 h 13.491865 V 71.997213 q 0,-15.079144 -10.581855,-21.825077 -10.581856,-6.878206 -32.406933,-6.878206 -21.957354,0 -33.994214,7.275026 -12.03686,7.142752 -13.88868,22.486442 h 16.93097 q 1.19046,-8.994577 8.33321,-13.227319 7.27502,-4.365015 23.941446,-4.365015 9.92049,0 15.608237,1.984098 5.687748,1.851824 7.936392,4.761835 1.190459,1.455005 1.719551,3.042283 0.661366,1.455005 0.661366,3.042283 v 0.132274 q 0,3.174556 -2.380917,4.894108 -2.248644,1.719551 -7.804119,2.51319 -2.777737,0.39682 -6.613659,0.79364 -3.835923,0.396819 -8.730031,0.661366 -12.036856,0.661366 -19.708706,1.719551 -7.67185,1.058186 -12.43368,2.513191 -2.38092,0.661366 -4.49729,1.587278 -2.11637,0.925912 -3.96819,1.984098 -5.29093,2.91001 -8.06867,7.407299 -2.64546,4.497288 -2.64546,10.581852 v 0.13228 q 0,10.18503 7.67184,15.60823 7.67185,5.4232 23.6769,5.4232 12.301411,0 21.428261,-3.04228 9.259124,-3.17456 15.475964,-8.46548 3.042283,-2.64547 5.290927,-5.55548 2.380918,-2.91001 3.968196,-6.21684 z"
         style="font-size:132.27319336px;fill:#233044;fill-opacity:1;stroke:#233044;stroke-width:2.21648312;stroke-miterlimit:4;stroke-dasharray:none;stroke-opacity:1"
         id="path966" />
    </g>
    <path
       style="color:#000000;font-style:normal;font-variant:normal;font-weight:normal;font-stretch:normal;font-size:medium;line-height:normal;font-family:sans-serif;font-variant-ligatures:normal;font-variant-position:normal;font-variant-caps:normal;font-variant-numeric:normal;font-variant-alternates:normal;font-feature-settings:normal;text-indent:0;text-align:start;text-decoration:none;text-decoration-line:none;text-decoration-style:solid;text-decoration-color:#000000;letter-spacing:normal;word-spacing:normal;text-transform:none;writing-mode:lr-tb;direction:ltr;text-orientation:mixed;dominant-baseline:auto;baseline-shift:baseline;text-anchor:start;white-space:normal;shape-padding:0;clip-rule:nonzero;display:inline;overflow:visible;visibility:visible;opacity:1;isolation:auto;mix-blend-mode:normal;color-interpolation:sRGB;color-interpolation-filters:linearRGB;solid-color:#000000;solid-opacity:1;vector-effect:none;fill:#233044;fill-opacity:1;fill-rule:nonzero;stroke:none;stroke-width:4.8115406;stroke-linecap:butt;stroke-linejoin:miter;stroke-miterlimit:4;stroke-dasharray:none;stroke-dashoffset:0;stroke-opacity:1;color-rendering:auto;image-rendering:auto;shape-rendering:auto;text-rendering:auto;enable-background:accumulate"
       d="m -174.90424,104.13721 c 2.67279,11.53257 8.13231,22.35178 15.5759,31.27541 14.901,17.86383 37.44039,27.38932 59.19385,26.45278 20.006246,-0.86131 38.795035,-10.08333 53.730119,-23.55579 14.087043,-12.70745 25.359218,-29.8278 28.937173,-49.715334 1.789546,-9.946852 1.604625,-20.442 -0.952441,-30.447784 -2.558789,-10.012675 -7.513297,-19.462215 -14.541167,-26.838771 -8.46006,-8.879809 -19.485773,-14.342135 -30.731595,-16.921435 -11.229592,-2.575578 -22.671524,-2.399664 -33.750338,-1.069064 -16.252481,1.951971 -32.461431,6.510194 -46.437481,15.639363 -13.9992,9.144291 -25.588,23.124886 -30.40601,40.286577 -3.14005,11.184788 -3.29147,23.358618 -0.61801,34.894048 z m 4.50478,-1.02719 c -2.47292,-10.670131 -2.32673,-21.96302 0.56396,-32.259623 4.43586,-15.800454 15.26475,-28.972458 28.47948,-37.604327 13.23787,-8.646992 28.80092,-13.072439 44.603751,-14.970408 10.775431,-1.294161 21.71866,-1.429711 32.258636,0.987701 10.523756,2.413686 20.70546,7.517008 28.354524,15.545588 6.350018,6.665071 10.900603,15.310975 13.245113,24.485183 2.346307,9.181069 2.530195,18.916281 0.86476,28.173349 -3.331995,18.520357 -13.959675,34.809567 -27.441517,46.971097 -14.30115,12.9006 -32.227402,21.63285 -51.027917,22.44226 -20.36775,0.87688 -41.59293,-8.13678 -55.42284,-24.71657 -6.92187,-8.29816 -12.00438,-18.38125 -14.47795,-29.05425 z"
       id="path14"
       inkscape:connector-curvature="0" />
  </g>
</svg>
