<svg width="165mm" height="165mm" version="1.1" viewBox="0 0 165 165" xmlns="http://www.w3.org/2000/svg">
 <g transform="translate(179.28 -3.9786)" fill="#233044">
  <g stroke="#233044" stroke-width="2.2165" aria-label="a">
   <path d="m-106.62 112.34q-10.053 0-14.286-2.7777-4.1005-2.91-4.1005-7.6718v-0.13227q0-2.7777 1.3227-5.0264t3.9682-3.8359q3.4391-2.2486 10.185-3.4391 6.8782-1.3227 19.841-1.9841 11.508-0.66137 16.931-2.1164 5.5555-1.5873 7.4073-4.1005v3.1746q0 4.8941-2.91 9.9205-2.91 4.8941-8.3332 8.9946-5.4232 4.1005-13.095 6.6137-7.5396 2.3809-16.931 2.3809zm43.253 9.3914h13.492v-49.735q0-15.079-10.582-21.825-10.582-6.8782-32.407-6.8782-21.957 0-33.994 7.275-12.037 7.1428-13.889 22.486h16.931q1.1905-8.9946 8.3332-13.227 7.275-4.365 23.941-4.365 9.9205 0 15.608 1.9841 5.6877 1.8518 7.9364 4.7618 1.1905 1.455 1.7196 3.0423 0.66137 1.455 0.66137 3.0423v0.13227q0 3.1746-2.3809 4.8941-2.2486 1.7196-7.8041 2.5132-2.7777 0.39682-6.6137 0.79364-3.8359 0.39682-8.73 0.66137-12.037 0.66137-19.709 1.7196-7.6718 1.0582-12.434 2.5132-2.3809 0.66137-4.4973 1.5873t-3.9682 1.9841q-5.2909 2.91-8.0687 7.4073-2.6455 4.4973-2.6455 10.582v0.13228q0 10.185 7.6718 15.608 7.6718 5.4232 23.677 5.4232 12.301 0 21.428-3.0423 9.2591-3.1746 15.476-8.4655 3.0423-2.6455 5.2909-5.5555 2.3809-2.91 3.9682-6.2168z" fill="#233044" stroke="#233044" stroke-width="2.2165"/>
  </g>
  <path d="m-174.9 104.14c2.6728 11.533 8.1323 22.352 15.576 31.275 14.901 17.864 37.44 27.389 59.194 26.453 20.006-0.86131 38.795-10.083 53.73-23.556 14.087-12.707 25.359-29.828 28.937-49.715 1.7895-9.9469 1.6046-20.442-0.95244-30.448-2.5588-10.013-7.5133-19.462-14.541-26.839-8.4601-8.8798-19.486-14.342-30.732-16.921-11.23-2.5756-22.672-2.3997-33.75-1.0691-16.252 1.952-32.461 6.5102-46.437 15.639-13.999 9.1443-25.588 23.125-30.406 40.287-3.14 11.185-3.2915 23.359-0.61801 34.894zm4.5048-1.0272c-2.4729-10.67-2.3267-21.963 0.56396-32.26 4.4359-15.8 15.265-28.972 28.479-37.604 13.238-8.647 28.801-13.072 44.604-14.97 10.775-1.2942 21.719-1.4297 32.259 0.9877 10.524 2.4137 20.705 7.517 28.355 15.546 6.35 6.6651 10.901 15.311 13.245 24.485 2.3463 9.1811 2.5302 18.916 0.86476 28.173-3.332 18.52-13.96 34.81-27.442 46.971-14.301 12.901-32.227 21.633-51.028 22.442-20.368 0.87688-41.593-8.1368-55.423-24.717-6.9219-8.2982-12.004-18.381-14.478-29.054z" color="#000000" color-rendering="auto" dominant-baseline="auto" image-rendering="auto" shape-rendering="auto" solid-color="#000000" style="font-feature-settings:normal;font-variant-alternates:normal;font-variant-caps:normal;font-variant-ligatures:normal;font-variant-numeric:normal;font-variant-position:normal;isolation:auto;mix-blend-mode:normal;shape-padding:0;text-decoration-color:#000000;text-decoration-line:none;text-decoration-style:solid;text-indent:0;text-orientation:mixed;text-transform:none;white-space:normal"/>
 </g>
</svg>
